<svg width="102" height="67" viewBox="0 0 102 67" fill="none" xmlns="http://www.w3.org/2000/svg">
<path d="M26.5234 31.5078L6.79688 6.97656V24.4375C6.79688 25.5833 6.84896 26.5208 6.95312 27.25C7.08333 27.9531 7.30469 28.513 7.61719 28.9297C7.92969 29.3464 8.35938 29.6458 8.90625 29.8281C9.45312 30.0104 10.1562 30.1276 11.0156 30.1797V31H0.546875V30.1797C1.45833 30.1016 2.1875 29.9844 2.73438 29.8281C3.30729 29.6458 3.73698 29.3464 4.02344 28.9297C4.33594 28.513 4.54427 27.9531 4.64844 27.25C4.7526 26.5208 4.80469 25.5833 4.80469 24.4375V4.82812C4.36198 4.30729 3.98438 3.89062 3.67188 3.57812C3.35938 3.23958 3.04688 2.99219 2.73438 2.83594C2.42188 2.65365 2.09635 2.53646 1.75781 2.48438C1.41927 2.40625 1.01562 2.36719 0.546875 2.36719V1.46875H8.16406L25.3125 23.0703V8.03125C25.3125 5.32292 24.8828 3.65625 24.0234 3.03125C23.6849 2.82292 23.3073 2.67969 22.8906 2.60156C22.5 2.4974 21.888 2.41927 21.0547 2.36719V1.46875H31.4844V2.36719C30.651 2.41927 30.026 2.51042 29.6094 2.64062C29.2188 2.77083 28.8802 2.9401 28.5938 3.14844C27.7083 3.72135 27.2656 5.34896 27.2656 8.03125V31.5078H26.5234ZM55.5547 29.4375C54.4089 29.724 53.3802 30.0104 52.4688 30.2969C51.5573 30.5833 50.5286 30.9479 49.3828 31.3906L49.2656 31.3125V27.6016L47.3125 29.5156C46.7135 30.1406 46.0104 30.6224 45.2031 30.9609C44.3958 31.2734 43.5755 31.4297 42.7422 31.4297C41.1016 31.4297 39.7865 30.9089 38.7969 29.8672C37.8333 28.8255 37.3516 27.4193 37.3516 25.6484V14.4766C37.3516 13.4349 37.1562 12.7188 36.7656 12.3281C36.401 11.9375 35.6719 11.7031 34.5781 11.625V10.8438H41.0625V25.4922C41.0625 26.4297 41.375 27.237 42 27.9141C42.625 28.5651 43.3802 28.8906 44.2656 28.8906C44.9427 28.8906 45.6198 28.7604 46.2969 28.5C47 28.2135 47.651 27.7969 48.25 27.25C48.5365 27.0417 48.7448 26.7682 48.875 26.4297C49.0052 26.0651 49.0703 25.5833 49.0703 24.9844V14.4375C49.0703 13.8906 49.0182 13.4479 48.9141 13.1094C48.8359 12.7448 48.6667 12.4583 48.4062 12.25C48.1719 12.0417 47.8333 11.8984 47.3906 11.8203C46.9479 11.7161 46.388 11.651 45.7109 11.625V10.8438H52.7812V26.2344C52.7812 27.276 52.9505 27.9661 53.2891 28.3047C53.6276 28.6172 54.3047 28.7734 55.3203 28.7734H55.5547V29.4375ZM58.8047 12.9531C59.4557 12.7188 60.0547 12.5104 60.6016 12.3281C61.1484 12.1198 61.6693 11.9245 62.1641 11.7422C62.6849 11.5339 63.1927 11.3385 63.6875 11.1562C64.2083 10.9479 64.7682 10.7266 65.3672 10.4922L65.6406 10.5703V14.6719C66.1875 13.8646 66.6823 13.2005 67.125 12.6797C67.5677 12.1328 67.9974 11.7031 68.4141 11.3906C68.8307 11.0521 69.2344 10.8177 69.625 10.6875C70.0417 10.5573 70.4844 10.4922 70.9531 10.4922C71.7083 10.4922 72.3073 10.7135 72.75 11.1562C73.1927 11.5729 73.4141 12.1328 73.4141 12.8359C73.4141 13.487 73.2578 13.9948 72.9453 14.3594C72.6328 14.6979 72.2161 14.8672 71.6953 14.8672C71.4089 14.8672 71.1224 14.8151 70.8359 14.7109C70.5755 14.5807 70.263 14.3333 69.8984 13.9688C69.6641 13.7604 69.4427 13.6042 69.2344 13.5C69.026 13.3958 68.8568 13.3438 68.7266 13.3438C68.4141 13.3438 68.0755 13.474 67.7109 13.7344C67.3724 13.9688 67.0469 14.2682 66.7344 14.6328C66.4219 14.9974 66.1615 15.388 65.9531 15.8047C65.7448 16.2214 65.6406 16.612 65.6406 16.9766V27.0156C65.6406 27.6406 65.6927 28.1615 65.7969 28.5781C65.901 28.9948 66.0964 29.3333 66.3828 29.5938C66.6693 29.8281 67.0599 30.0104 67.5547 30.1406C68.0495 30.2708 68.6745 30.349 69.4297 30.375V31H58.6875V30.375C59.3906 30.2448 59.9505 30.1146 60.3672 29.9844C60.8099 29.8281 61.1354 29.6458 61.3438 29.4375C61.5781 29.2292 61.7214 28.9557 61.7734 28.6172C61.8516 28.2526 61.8906 27.7969 61.8906 27.25V16.1172C61.8906 15.1276 61.7734 14.4375 61.5391 14.0469C61.3047 13.6302 60.9141 13.4219 60.3672 13.4219C60.0807 13.4219 59.8203 13.4349 59.5859 13.4609C59.3776 13.487 59.1172 13.5391 58.8047 13.6172V12.9531ZM80.0625 5.53125C79.9844 5.55729 79.8932 5.57031 79.7891 5.57031C79.7109 5.57031 79.6328 5.57031 79.5547 5.57031C78.6432 5.57031 77.9271 5.36198 77.4062 4.94531C76.8854 4.52865 76.625 3.94271 76.625 3.1875C76.625 2.45833 76.8854 1.8724 77.4062 1.42969C77.9271 0.960938 78.5651 0.726562 79.3203 0.726562C80.3099 0.726562 81.1042 1.07812 81.7031 1.78125C82.3281 2.48438 82.6406 3.42188 82.6406 4.59375C82.6406 5.45312 82.4844 6.3125 82.1719 7.17188C81.8854 8.00521 81.4818 8.79948 80.9609 9.55469C80.8047 9.76302 80.6484 9.95833 80.4922 10.1406C80.3359 10.2969 80.1406 10.4792 79.9062 10.6875C79.6719 10.8698 79.3984 11.0781 79.0859 11.3125C78.7734 11.5469 78.3958 11.8203 77.9531 12.1328C77.875 12.1849 77.7708 12.263 77.6406 12.3672C77.5104 12.4453 77.3932 12.5104 77.2891 12.5625L76.3516 11.4688C77.7057 10.5833 78.7344 9.67188 79.4375 8.73438C80.1406 7.79688 80.4922 6.85938 80.4922 5.92188C80.4922 5.66146 80.401 5.53125 80.2188 5.53125H80.0625Z" fill="black"/>
<path d="M99.0547 17.0156C98.5599 15.0104 97.9479 13.5911 97.2188 12.7578C96.4896 11.9245 95.487 11.5078 94.2109 11.5078C93.1693 11.5078 92.3359 11.7943 91.7109 12.3672C91.0859 12.9141 90.7734 13.6432 90.7734 14.5547C90.7734 15.8307 91.4115 16.8464 92.6875 17.6016L97.4922 20.4531C98.8464 21.2604 99.8099 22.0677 100.383 22.875C100.956 23.6562 101.242 24.6068 101.242 25.7266C101.242 26.5078 101.073 27.25 100.734 27.9531C100.396 28.6562 99.9401 29.2682 99.3672 29.7891C98.8203 30.2839 98.1693 30.6875 97.4141 31C96.6589 31.2865 95.8516 31.4297 94.9922 31.4297C94.5234 31.4297 94.0156 31.3906 93.4688 31.3125C92.9219 31.2604 92.3229 31.1562 91.6719 31C91.151 30.8698 90.7474 30.7786 90.4609 30.7266C90.1745 30.6745 89.901 30.6484 89.6406 30.6484C89.3802 30.6484 89.1849 30.6875 89.0547 30.7656C88.9245 30.8438 88.7812 30.987 88.625 31.1953H88.0391V24.2422H88.7422C89.0026 25.388 89.3021 26.3516 89.6406 27.1328C89.9792 27.9141 90.3698 28.5521 90.8125 29.0469C91.2552 29.5417 91.776 29.9062 92.375 30.1406C92.974 30.349 93.651 30.4531 94.4062 30.4531C95.5781 30.4531 96.4896 30.1667 97.1406 29.5938C97.8177 29.0208 98.1562 28.2396 98.1562 27.25C98.1562 25.9219 97.375 24.8151 95.8125 23.9297L93.2344 22.4453C92.2708 21.8984 91.4505 21.3776 90.7734 20.8828C90.1224 20.388 89.5885 19.8932 89.1719 19.3984C88.7552 18.8776 88.4557 18.3438 88.2734 17.7969C88.0911 17.25 88 16.6641 88 16.0391C88 15.2318 88.1432 14.4896 88.4297 13.8125C88.7422 13.1354 89.1589 12.5495 89.6797 12.0547C90.2266 11.5599 90.8776 11.1823 91.6328 10.9219C92.388 10.6615 93.2214 10.5312 94.1328 10.5312C95.1745 10.5312 96.1771 10.7135 97.1406 11.0781C97.6875 11.3125 98.1042 11.4297 98.3906 11.4297C98.4948 11.4297 98.5729 11.4036 98.625 11.3516C98.6771 11.2995 98.8073 11.1823 99.0156 11L99.0547 10.9219H99.6016L99.7578 17.0156H99.0547Z" fill="#AA0000"/>
<path d="M2.44 58.04L1.8 58.84L1.2 58.64L2.84 53.72L3.48 53.84L3.32 55.48C4.68 56.0667 5.92 56.36 7.04 56.36C8.16 56.36 9.01333 56.16 9.6 55.76C10.1867 55.36 10.48 54.8267 10.48 54.16C10.48 53.4933 10.1733 52.9467 9.56 52.52C8.94667 52.0667 8.2 51.68 7.32 51.36C6.44 51.0133 5.56 50.64 4.68 50.24C3.82667 49.84 3.09333 49.28 2.48 48.56C1.86667 47.84 1.56 46.9067 1.56 45.76C1.56 44.5867 2.2 43.5733 3.48 42.72C4.76 41.8667 6.38667 41.44 8.36 41.44C9.50667 41.44 10.6667 41.5867 11.84 41.88L12.2 40.96H12.84L12.6 46.32L11.92 46.28L11.72 44.8C9.88 44 8.4 43.6 7.28 43.6C5.44 43.6 4.52 44.2133 4.52 45.44C4.52 45.9733 4.82667 46.44 5.44 46.84C6.08 47.24 6.84 47.6 7.72 47.92C8.6 48.24 9.48 48.6 10.36 49C11.24 49.4 11.9867 49.9733 12.6 50.72C13.24 51.4667 13.56 52.36 13.56 53.4C13.56 54.9733 12.9067 56.24 11.6 57.2C10.2933 58.1333 8.56 58.6 6.4 58.6C5.2 58.6 3.88 58.4133 2.44 58.04ZM26.7563 58L26.7163 57.24L27.9163 56.96L28.2763 50.8V40.96L27.9163 34.92L26.5563 34.64L26.5963 33.88L31.7563 33.44L31.3563 40.96V43.72C33.2229 42.2 35.0229 41.44 36.7563 41.44C38.5163 41.44 39.8229 41.9467 40.6763 42.96C41.5563 43.9733 41.9963 45.3867 41.9963 47.2V50.88L42.3163 56.96L43.5163 57.24L43.4763 58H36.8763L36.8363 57.16L38.5563 56.96L38.9163 50.88V47.36C38.9163 46.3467 38.6229 45.5733 38.0363 45.04C37.4763 44.48 36.5829 44.2 35.3563 44.2C34.1296 44.2 32.7963 44.7333 31.3563 45.8V50.8L31.7163 56.96L33.5163 57.16L33.4763 58H26.7563ZM64.5878 56.36C67.4145 56.36 68.8278 54.4 68.8278 50.48C68.8278 45.9467 67.1878 43.68 63.9078 43.68C62.4411 43.68 61.3745 44.1467 60.7078 45.08C60.0678 45.9867 59.7478 47.5467 59.7478 49.76C59.7478 54.16 61.3611 56.36 64.5878 56.36ZM64.1878 58.6C61.7078 58.6 59.7745 57.88 58.3878 56.44C57.0011 54.9733 56.3078 52.92 56.3078 50.28C56.3078 47.6133 57.0411 45.48 58.5078 43.88C59.9745 42.2533 61.9478 41.44 64.4278 41.44C66.9345 41.44 68.8678 42.16 70.2278 43.6C71.6145 45.0133 72.3078 47.0667 72.3078 49.76C72.3078 52.4267 71.5745 54.5733 70.1078 56.2C68.6411 57.8 66.6678 58.6 64.1878 58.6ZM87.0466 59.16V49.16L86.6866 43.12L85.3266 42.84L85.3666 42.08L90.3266 41.72V43.36C91.7666 42.08 93.3532 41.44 95.0866 41.44C96.8199 41.44 98.2866 42.2133 99.4866 43.76C100.687 45.28 101.287 47.3333 101.287 49.92C101.287 52.48 100.54 54.5733 99.0466 56.2C97.5532 57.8 95.4999 58.6 92.8866 58.6C92.0332 58.6 91.1132 58.4933 90.1266 58.28V59.16L90.4466 65.2L92.2466 65.4L92.2066 66.24H85.5266L85.4866 65.48L86.6866 65.2L87.0466 59.16ZM96.7266 54.96C97.4732 53.9733 97.8466 52.4267 97.8466 50.32C97.8466 48.2133 97.4732 46.5867 96.7266 45.44C96.0066 44.2667 95.0332 43.68 93.8066 43.68C92.6066 43.68 91.4466 44.2667 90.3266 45.44L90.1266 49.12V55.96C91.3799 56.2533 92.4332 56.4 93.2866 56.4C94.8599 56.4 96.0066 55.92 96.7266 54.96Z" fill="black"/>
</svg>
